<svg xmlns="http://www.w3.org/2000/svg" viewBox="0 0 58 58"><defs><style>.cls-1{fill:#5093ea;}.cls-2{fill:none;stroke:#fff;stroke-width:2px;}</style></defs><g id="Camada_2" data-name="Camada 2"><g id="Camada_10" data-name="Camada 10"><rect class="cls-1" width="58" height="58" rx="9.79"/><g id="Camada_4" data-name="Camada 4"><path class="cls-2" d="M22.27,40.24l18.82,0c.51-.57,1.14-1.28,1.85-2.11a5.34,5.34,0,0,0,1.11-1.5,5.81,5.81,0,0,0,.27-2.3c.14-2,.89-2,1-3.75.08-1.47-.44-1.47-.29-3.11a7.35,7.35,0,0,0,.16-2.25,11.36,11.36,0,0,0-.62-1.79A11.94,11.94,0,0,1,44,21.27l-9.43,0a.35.35,0,0,1-.31-.52,21.21,21.21,0,0,0,1.9-5.92A6,6,0,0,0,36,11.68c-.36-1-1.36-2.75-2.81-2.73A3.11,3.11,0,0,0,31,10.48c-.61.92-.43,1.54-.83,3.13a15.62,15.62,0,0,1-1.16,3A21.87,21.87,0,0,1,26.37,21c-2.9,3.52-8.4,4.24-9.67,4.38l-.18,16.73"/></g></g></g></svg>