<svg xmlns="http://www.w3.org/2000/svg" viewBox="0 0 58 58"><defs><style>.cls-1{fill:#5093ea;}.cls-2{fill:none;stroke:#fff;stroke-width:1.6px;}</style></defs><g id="Camada_2" data-name="Camada 2"><g id="Camada_7" data-name="Camada 7"><rect class="cls-1" width="58" height="58" rx="9.79"/><g id="Camada_13" data-name="Camada 13"><rect class="cls-2" x="11.37" y="16.41" width="35.04" height="23.04"/><line class="cls-2" x1="11.37" y1="35.43" x2="46.4" y2="35.43"/><line class="cls-2" x1="20.42" y1="45.5" x2="37.56" y2="45.44"/><line class="cls-2" x1="31.32" y1="45.46" x2="31.29" y2="39.16"/><line class="cls-2" x1="26.31" y1="45.48" x2="26.31" y2="39.44"/><line class="cls-2" x1="28.88" y1="16.41" x2="28.88" y2="35.85"/><circle class="cls-2" cx="20.59" cy="23.37" r="2.77"/><path class="cls-2" d="M20.56,26.75h0a4.86,4.86,0,0,1,4.86,4.86v.34a0,0,0,0,1,0,0H15.71a0,0,0,0,1,0,0V31.6A4.86,4.86,0,0,1,20.56,26.75Z"/><circle class="cls-2" cx="38.26" cy="23.22" r="2.77"/><path class="cls-2" d="M38.23,26.61h0a4.86,4.86,0,0,1,4.86,4.86v.34a0,0,0,0,1,0,0H33.38a0,0,0,0,1,0,0v-.34A4.86,4.86,0,0,1,38.23,26.61Z"/></g></g></g></svg>