<svg xmlns="http://www.w3.org/2000/svg" viewBox="0 0 58 58"><defs><style>.cls-1{fill:#5093ea;}.cls-2,.cls-3,.cls-4{fill:none;stroke:#fff;}.cls-2{stroke-width:1.76px;}.cls-3{stroke-width:1.6px;}.cls-4{stroke-width:2px;}</style></defs><g id="Camada_2" data-name="Camada 2"><g id="Doc"><rect class="cls-1" width="58" height="58" rx="9.79"/><path class="cls-2" d="M40.07,47.18H17.93A2.14,2.14,0,0,1,15.79,45V13a2.14,2.14,0,0,1,2.14-2.14H28.4A4.08,4.08,0,0,1,31.24,12l9.14,8.94a6.07,6.07,0,0,1,1.83,4.35V45A2.14,2.14,0,0,1,40.07,47.18Z"/><path class="cls-3" d="M30.07,12V22H40.3a.42.42,0,0,0,.3-.73l-9.68-9.57A.5.5,0,0,0,30.07,12Z"/><line class="cls-4" x1="21.29" y1="26.96" x2="28.43" y2="26.96"/><line class="cls-4" x1="21.21" y1="33.11" x2="37.43" y2="33.18"/><line class="cls-4" x1="21.3" y1="38.68" x2="36.8" y2="38.68"/></g></g></svg>