<svg xmlns="http://www.w3.org/2000/svg" xmlns:xlink="http://www.w3.org/1999/xlink" viewBox="0 0 58 58"><defs><style>.cls-1,.cls-4{fill:none;}.cls-2{fill:#5093ea;}.cls-3{clip-path:url(#clip-path);}.cls-4{stroke:#fff;stroke-width:2px;}.cls-5{clip-path:url(#clip-path-2);}</style><clipPath id="clip-path"><rect class="cls-1" x="14.2" y="17.05" width="14.93" height="27.33"/></clipPath><clipPath id="clip-path-2"><rect class="cls-1" x="29.13" y="17.05" width="14.93" height="27.33"/></clipPath></defs><g id="Camada_2" data-name="Camada 2"><g id="Camada_3" data-name="Camada 3"><g id="Camada_6" data-name="Camada 6"><rect class="cls-2" width="58" height="58" rx="9.79"/></g><g id="_Repetição_do_espelho_" data-name="&lt;Repetição do espelho&gt;"><g class="cls-3"><path class="cls-4" d="M30.05,17.49c-1.22,2.48-2.51,5-3.89,7.6q-1.57,3-3.16,5.76l-7.38-3.46a.29.29,0,0,0-.41.31q1.09,7.83,2.2,15.67l11.86,0"/></g></g><g id="_Repetição_do_espelho_2" data-name="&lt;Repetição do espelho&gt;"><g class="cls-5"><path class="cls-4" d="M28.21,17.49c1.22,2.48,2.51,5,3.88,7.6,1,2,2.11,3.9,3.16,5.76l7.38-3.46a.29.29,0,0,1,.42.31Q42,35.53,40.84,43.37L29,43.33"/></g></g><circle class="cls-4" cx="13.67" cy="25.11" r="2.21"/><circle class="cls-4" cx="29.13" cy="15.84" r="2.21"/><circle class="cls-4" cx="44.33" cy="25.5" r="2.21"/><line class="cls-4" x1="16.88" y1="39.83" x2="41.38" y2="39.83"/></g></g></svg>