<svg xmlns="http://www.w3.org/2000/svg" xmlns:xlink="http://www.w3.org/1999/xlink" viewBox="0 0 58 58"><defs><style>.cls-1,.cls-4{fill:none;}.cls-2{fill:#5093ea;}.cls-3{clip-path:url(#clip-path);}.cls-4{stroke:#e9fff6;stroke-width:2px;}.cls-5{clip-path:url(#clip-path-2);}</style><clipPath id="clip-path"><rect class="cls-1" x="11.14" y="13.57" width="17.86" height="30.86"/></clipPath><clipPath id="clip-path-2"><rect class="cls-1" x="29" y="13.57" width="17.86" height="30.86"/></clipPath></defs><g id="Camada_2" data-name="Camada 2"><g id="Coração"><rect class="cls-2" width="58" height="58" rx="9.79"/><g id="_Repetição_do_espelho_" data-name="&lt;Repetição do espelho&gt;"><g class="cls-3"><path class="cls-4" d="M29.9,21.15a9.6,9.6,0,0,0-9.33-6.57,9.12,9.12,0,0,0-8.07,6,9,9,0,0,0,.14,5.36c.87,3.17,2.74,5.29,7.07,9.28,2.56,2.36,5.86,5.25,9.87,8.42"/></g></g><g id="_Repetição_do_espelho_2" data-name="&lt;Repetição do espelho&gt;"><g class="cls-5"><path class="cls-4" d="M28.1,21.15a9.6,9.6,0,0,1,9.33-6.57,9.12,9.12,0,0,1,8.07,6,9,9,0,0,1-.14,5.36c-.88,3.17-2.74,5.29-7.07,9.28-2.56,2.36-5.86,5.25-9.87,8.42"/></g></g></g></g></svg>