<svg xmlns="http://www.w3.org/2000/svg" viewBox="0 0 58 58"><defs><style>.cls-1{fill:#5093ea;}.cls-2{fill:none;stroke:#e9fff6;stroke-width:2px;}</style></defs><g id="Camada_2" data-name="Camada 2"><g id="Camada_8" data-name="Camada 8"><rect class="cls-1" width="58" height="58" rx="9.79"/><g id="Camada_12" data-name="Camada 12"><path class="cls-2" d="M46.77,20.37A11,11,0,0,1,44.55,27a17.1,17.1,0,0,1-3.37,3.09l-1.13,5.55a.13.13,0,0,1-.09.1.21.21,0,0,1-.13,0c-.14-.1-3.59-3.87-5-5.41a23.25,23.25,0,0,1-3.76-.06,12.51,12.51,0,0,1-4-.79,9.3,9.3,0,0,1-3.93-3.24,9.89,9.89,0,0,1-1.72-6.07A10.06,10.06,0,0,1,24,13.55c2.59-2.67,6.15-2.66,10.22-2.64s8.76,0,11.14,3.28C46.88,16.3,46.81,18.86,46.77,20.37Z"/><path class="cls-2" d="M17.44,22.3A7.36,7.36,0,0,0,13.17,25a8,8,0,0,0-1.35,3.67,12.46,12.46,0,0,0,.12,4.5,8.86,8.86,0,0,0,1.28,3.56,21.68,21.68,0,0,0,4.11,4.15l.42,2,.68,3.32a.11.11,0,0,0,.18,0l3.16-3.11,1.91-2.09s1.66,0,3.76-.06A10.76,10.76,0,0,0,32,40a7.22,7.22,0,0,0,2.71-2.11,6.82,6.82,0,0,0,.88-1.51"/><circle class="cls-2" cx="28.04" cy="20.69" r="0.96"/><circle class="cls-2" cx="34.62" cy="20.69" r="0.96"/><circle class="cls-2" cx="41.29" cy="20.69" r="0.96"/></g></g></g></svg>