<svg xmlns="http://www.w3.org/2000/svg" viewBox="0 0 58 58"><defs><style>.cls-1{fill:#5093ea;}.cls-2{fill:none;stroke:#e9fff6;stroke-width:2px;}</style></defs><g id="Camada_2" data-name="Camada 2"><g id="Camada_9" data-name="Camada 9"><rect class="cls-1" width="58" height="58" rx="9.79"/><g id="Camada_11" data-name="Camada 11"><path class="cls-2" d="M33.82,24.74h3.11L37.24,29l5.09-4.26h6.09V11.91H25.51v5.44"/><ellipse class="cls-2" cx="24.39" cy="28.23" rx="5.57" ry="6.82"/><line class="cls-2" x1="19.19" y1="28.73" x2="25.73" y2="25.92"/><line class="cls-2" x1="29.95" y1="28.65" x2="25.06" y2="25.89"/><line class="cls-2" x1="21.49" y1="37.87" x2="21.52" y2="34.08"/><line class="cls-2" x1="27.51" y1="34.12" x2="27.49" y2="37.91"/><path class="cls-2" d="M27.49,37.73h0l-.71,0,.93,0h1.68a6.92,6.92,0,0,1,6.92,6.93H12.92a6.94,6.94,0,0,1,2-4.9,7.09,7.09,0,0,1,4.9-2h2.38"/></g></g></g></svg>